<svg width="24" height="24" viewBox="0 0 24 24" fill="none" xmlns="http://www.w3.org/2000/svg">
<path d="M22.425 9.12075C22.3342 8.8408 22.163 8.59375 21.9328 8.41038C21.7026 8.22701 21.4235 8.11542 21.1303 8.0895L15.5625 7.6095L13.38 2.4195C13.2664 2.14717 13.0747 1.91455 12.8291 1.75093C12.5836 1.58731 12.2951 1.5 12 1.5C11.7049 1.5 11.4164 1.58731 11.1709 1.75093C10.9253 1.91455 10.7336 2.14717 10.62 2.4195L8.44406 7.6095L2.86968 8.09231C2.57534 8.11705 2.29485 8.22813 2.06339 8.41164C1.83193 8.59515 1.6598 8.84291 1.56859 9.12385C1.47738 9.4048 1.47115 9.70642 1.55067 9.99089C1.6302 10.2754 1.79194 10.53 2.01562 10.7229L6.24468 14.4186L4.97718 19.9067C4.91016 20.1939 4.92928 20.4945 5.03216 20.7709C5.13504 21.0472 5.31712 21.2872 5.55561 21.4606C5.79411 21.6341 6.07846 21.7334 6.37309 21.7462C6.66773 21.7589 6.95959 21.6845 7.21218 21.5323L11.9934 18.6261L16.785 21.5323C17.0376 21.6845 17.3294 21.7589 17.6241 21.7462C17.9187 21.7334 18.2031 21.6341 18.4416 21.4606C18.6801 21.2872 18.8621 21.0472 18.965 20.7709C19.0679 20.4945 19.087 20.1939 19.02 19.9067L17.7534 14.4129L21.9816 10.7229C22.2052 10.5294 22.3666 10.274 22.4455 9.98889C22.5244 9.70382 22.5173 9.40178 22.425 9.12075ZM20.9981 9.5895L16.77 13.2795C16.5642 13.4585 16.4111 13.6902 16.3272 13.9497C16.2433 14.2092 16.2317 14.4867 16.2937 14.7523L17.5641 20.2498L12.7762 17.3436C12.5427 17.2013 12.2744 17.1261 12.0009 17.1261C11.7274 17.1261 11.4592 17.2013 11.2256 17.3436L6.44437 20.2498L7.70624 14.7561C7.76826 14.4905 7.75669 14.213 7.67277 13.9535C7.58886 13.694 7.43577 13.4623 7.22999 13.2833L2.99999 9.59513C2.99965 9.59232 2.99965 9.58949 2.99999 9.58669L8.57249 9.10481C8.84456 9.08083 9.10491 8.98303 9.32547 8.82194C9.54603 8.66086 9.71842 8.44262 9.82406 8.19075L12 3.00731L14.175 8.19075C14.2806 8.44262 14.453 8.66086 14.6736 8.82194C14.8941 8.98303 15.1545 9.08083 15.4266 9.10481L21 9.58669C21 9.58669 21 9.59231 21 9.59325L20.9981 9.5895Z" fill="#514D4D"/>
</svg>
