<svg width="24" height="24" viewBox="0 0 24 24" fill="none" xmlns="http://www.w3.org/2000/svg">
<path d="M22.4249 9.12075C22.3341 8.8408 22.1629 8.59375 21.9327 8.41038C21.7025 8.22701 21.4234 8.11542 21.1303 8.0895L15.5624 7.6095L13.3799 2.4195C13.2663 2.14717 13.0747 1.91455 12.8291 1.75093C12.5835 1.58731 12.295 1.5 11.9999 1.5C11.7049 1.5 11.4164 1.58731 11.1708 1.75093C10.9252 1.91455 10.7336 2.14717 10.6199 2.4195L8.44401 7.6095L2.86964 8.09231C2.57529 8.11705 2.29481 8.22813 2.06335 8.41164C1.83189 8.59515 1.65976 8.84291 1.56855 9.12385C1.47733 9.4048 1.4711 9.70642 1.55063 9.99089C1.63015 10.2754 1.79189 10.53 2.01557 10.7229L6.24464 14.4186L4.97714 19.9067C4.91011 20.1939 4.92924 20.4945 5.03212 20.7709C5.135 21.0472 5.31707 21.2872 5.55557 21.4606C5.79407 21.6341 6.07841 21.7334 6.37305 21.7462C6.66769 21.7589 6.95955 21.6845 7.21214 21.5323L11.9934 18.6261L16.7849 21.5323C17.0375 21.6845 17.3294 21.7589 17.624 21.7462C17.9187 21.7334 18.203 21.6341 18.4415 21.4606C18.68 21.2872 18.8621 21.0472 18.965 20.7709C19.0678 20.4945 19.087 20.1939 19.0199 19.9067L17.7534 14.4129L21.9815 10.7229C22.2052 10.5294 22.3666 10.274 22.4455 9.98889C22.5244 9.70382 22.5172 9.40178 22.4249 9.12075ZM20.9981 9.5895L16.7699 13.2795C16.5642 13.4585 16.4111 13.6902 16.3272 13.9497C16.2433 14.2092 16.2317 14.4867 16.2937 14.7523L17.564 20.2498L12.7762 17.3436C12.5426 17.2013 12.2744 17.1261 12.0009 17.1261C11.7274 17.1261 11.4592 17.2013 11.2256 17.3436L6.44432 20.2498L7.7062 14.7561C7.76821 14.4905 7.75664 14.213 7.67273 13.9535C7.58881 13.694 7.43573 13.4623 7.22995 13.2833L2.99995 9.59513C2.9996 9.59232 2.9996 9.58949 2.99995 9.58669L8.57245 9.10481C8.84451 9.08083 9.10487 8.98303 9.32543 8.82194C9.54599 8.66086 9.71838 8.44262 9.82401 8.19075L11.9999 3.00731L14.1749 8.19075C14.2806 8.44262 14.453 8.66086 14.6735 8.82194C14.8941 8.98303 15.1544 9.08083 15.4265 9.10481L20.9999 9.58669C20.9999 9.58669 20.9999 9.59231 20.9999 9.59325L20.9981 9.5895Z" fill="white"/>
</svg>
