<svg width="24" height="24" viewBox="0 0 24 24" fill="none" xmlns="http://www.w3.org/2000/svg">
<path d="M12.75 11.2499V16.4999C12.75 16.6988 12.671 16.8896 12.5303 17.0303C12.3897 17.1709 12.1989 17.2499 12 17.2499C11.8011 17.2499 11.6103 17.1709 11.4697 17.0303C11.329 16.8896 11.25 16.6988 11.25 16.4999V11.2499C11.25 11.051 11.329 10.8603 11.4697 10.7196C11.6103 10.579 11.8011 10.4999 12 10.4999C12.1989 10.4999 12.3897 10.579 12.5303 10.7196C12.671 10.8603 12.75 11.051 12.75 11.2499ZM22.4869 9.19775L21.1875 18.9487C21.1393 19.3091 20.9619 19.6397 20.6882 19.879C20.4146 20.1184 20.0633 20.2502 19.6997 20.2499H4.30031C3.93674 20.2502 3.58544 20.1184 3.31177 19.879C3.0381 19.6397 2.86067 19.3091 2.8125 18.9487L1.51219 9.19869C1.48385 8.98672 1.50117 8.77114 1.56298 8.56641C1.62479 8.36168 1.72966 8.17253 1.87056 8.01165C2.01146 7.85077 2.18513 7.72188 2.37993 7.63363C2.57473 7.54537 2.78614 7.49979 3 7.49994H6.40969L11.4375 1.75587C11.5079 1.67607 11.5944 1.61215 11.6914 1.56837C11.7884 1.52459 11.8936 1.50195 12 1.50195C12.1064 1.50195 12.2116 1.52459 12.3086 1.56837C12.4056 1.61215 12.4921 1.67607 12.5625 1.75587L17.5903 7.49994H21C21.2136 7.50007 21.4247 7.54583 21.6192 7.63415C21.8137 7.72247 21.9871 7.85131 22.1278 8.01205C22.2685 8.17279 22.3732 8.36172 22.435 8.56621C22.4967 8.77069 22.5141 8.98601 22.4859 9.19775H22.4869ZM8.40281 7.49994H15.5972L12 3.389L8.40281 7.49994ZM21 8.99994H3L4.30031 18.7499H19.6997L21 8.99994ZM16.2037 11.1749L15.6788 16.4249C15.6684 16.5232 15.6775 16.6226 15.7057 16.7173C15.7339 16.8121 15.7805 16.9003 15.8428 16.977C15.9052 17.0537 15.9821 17.1172 16.0692 17.1641C16.1562 17.2109 16.2516 17.2401 16.35 17.2499C16.3753 17.2513 16.4006 17.2513 16.4259 17.2499C16.6117 17.2497 16.7908 17.1805 16.9285 17.0558C17.0662 16.9311 17.1527 16.7598 17.1713 16.5749L17.6962 11.3249C17.7161 11.127 17.6566 10.9293 17.5307 10.7753C17.4048 10.6213 17.2229 10.5236 17.025 10.5037C16.8271 10.4838 16.6294 10.5433 16.4754 10.6692C16.3213 10.7951 16.2236 10.977 16.2037 11.1749ZM7.79625 11.1749C7.77636 10.977 7.67866 10.7951 7.52465 10.6692C7.37063 10.5433 7.17292 10.4838 6.975 10.5037C6.77708 10.5236 6.59517 10.6213 6.46929 10.7753C6.3434 10.9293 6.28386 11.127 6.30375 11.3249L6.82875 16.5749C6.84741 16.7606 6.93459 16.9326 7.07327 17.0574C7.21195 17.1822 7.39218 17.2509 7.57875 17.2499C7.60404 17.2513 7.62939 17.2513 7.65469 17.2499C7.75269 17.2401 7.84779 17.211 7.93456 17.1644C8.02133 17.1178 8.09807 17.0546 8.1604 16.9783C8.22273 16.9021 8.26943 16.8143 8.29784 16.72C8.32624 16.6257 8.33579 16.5267 8.32594 16.4287L7.79625 11.1749Z" fill="#171211"/>
</svg>
