<svg width="24" height="24" viewBox="0 0 24 24" fill="none" xmlns="http://www.w3.org/2000/svg">
<path d="M21.5306 20.4689L16.9913 15.9304C17.0944 15.8995 17.1966 15.8667 17.2978 15.8301C18.6987 15.3199 19.8398 14.2743 20.4701 12.9231C21.1005 11.572 21.1687 10.0259 20.6597 8.62451C20.5916 8.4377 20.4522 8.28556 20.272 8.20153C20.0918 8.1175 19.8856 8.10845 19.6988 8.17639L15.555 9.68389C15.585 9.62576 15.615 9.56764 15.6422 9.50764C16.1126 8.49969 16.2736 7.37491 16.1048 6.27548C15.936 5.17605 15.4451 4.15134 14.6941 3.33088C13.9431 2.51041 12.9656 1.93102 11.8854 1.66596C10.8051 1.40089 9.67053 1.46205 8.62502 1.8417C8.53218 1.87503 8.44684 1.92634 8.37386 1.9927C8.30088 2.05906 8.24172 2.13917 8.19974 2.22843C8.15777 2.31769 8.13381 2.41435 8.12925 2.51288C8.12468 2.61141 8.1396 2.70988 8.17314 2.80263L9.68064 6.94638C9.62252 6.91638 9.56439 6.88638 9.50439 6.8592C8.49623 6.38941 7.37141 6.22905 6.27213 6.3984C5.17285 6.56774 4.14844 7.05917 3.32839 7.81059C2.50835 8.56201 1.92948 9.53967 1.66495 10.62C1.40041 11.7003 1.4621 12.8349 1.84221 13.8801C1.91027 14.0669 2.04972 14.2191 2.22991 14.3031C2.4101 14.3871 2.61629 14.3962 2.80314 14.3283L6.94689 12.8198C6.91689 12.8789 6.88689 12.937 6.85971 12.997C6.38992 14.0052 6.22956 15.13 6.39891 16.2293C6.56825 17.3286 7.05968 18.353 7.8111 19.173C8.56252 19.9931 9.54018 20.5719 10.6205 20.8365C11.7008 21.101 12.8354 21.0393 13.8806 20.6592C14.0675 20.5911 14.2196 20.4517 14.3036 20.2715C14.3877 20.0913 14.3967 19.8851 14.3288 19.6983L12.8203 15.5545C12.8794 15.5845 12.9375 15.6145 12.9975 15.6417C13.6593 15.9516 14.3752 16.1293 15.105 16.1648L20.4694 21.5301C20.6101 21.6709 20.801 21.7499 21 21.7499C21.199 21.7499 21.3899 21.6709 21.5306 21.5301C21.6714 21.3894 21.7504 21.1985 21.7504 20.9995C21.7504 20.8005 21.6714 20.6096 21.5306 20.4689ZM12.2878 3.38857C12.9704 3.70571 13.5531 4.20354 13.973 4.82813C14.3929 5.45273 14.6339 6.18029 14.6699 6.93204C14.7059 7.68378 14.5356 8.43106 14.1773 9.09293C13.8191 9.75481 13.2866 10.3061 12.6375 10.687L9.86158 3.05857C10.6851 2.91824 11.5318 3.0334 12.2878 3.38857ZM3.05908 12.6389C2.89615 11.6864 3.07278 10.707 3.55814 9.87143C4.0435 9.03587 4.80679 8.39722 5.71487 8.06689C6.62296 7.73655 7.61819 7.7355 8.52697 8.06391C9.43575 8.39232 10.2004 9.02936 10.6875 9.86389L3.05908 12.6389ZM10.2188 19.1123C9.53717 18.7948 8.95532 18.2971 8.53611 17.6728C8.11691 17.0486 7.8763 16.3217 7.84029 15.5706C7.80429 14.8196 7.97426 14.0729 8.33183 13.4115C8.68941 12.75 9.22098 12.1989 9.86908 11.8176L12.6441 19.4423C11.8209 19.5826 10.9745 19.4675 10.2188 19.1123ZM15.4275 14.6704H15.4172C14.6925 14.6759 13.979 14.491 13.3482 14.1342C12.7174 13.7773 12.1914 13.261 11.8228 12.637L19.4475 9.86107C19.5454 10.4483 19.5152 11.0497 19.359 11.6242C19.2027 12.1986 18.9242 12.7325 18.5424 13.1893C18.1606 13.646 17.6846 14.0149 17.1469 14.2705C16.6093 14.5262 16.0228 14.6626 15.4275 14.6704Z" fill="#171211"/>
</svg>
