<svg width="24" height="24" viewBox="0 0 24 24" fill="none" xmlns="http://www.w3.org/2000/svg">
<path d="M21.4359 12.1046L15.7425 10.2071C15.4464 10.1082 15.1742 9.94875 14.943 9.73893C14.7119 9.52911 14.527 9.2735 14.4 8.98834L12.2241 3.90053C12.2241 3.90053 12.2241 3.89396 12.2241 3.89115C12.0691 3.54361 11.7879 3.26795 11.4373 3.11999C11.0867 2.97203 10.693 2.96284 10.3359 3.09428L3.23719 5.67146C2.94819 5.77732 2.69859 5.96925 2.52207 6.22137C2.34555 6.47349 2.25059 6.77369 2.25 7.08146V18.0005C2.25 18.3984 2.40804 18.7799 2.68934 19.0612C2.97064 19.3425 3.35218 19.5005 3.75 19.5005H22.5C22.8978 19.5005 23.2794 19.3425 23.5607 19.0612C23.842 18.7799 24 18.3984 24 18.0005V15.6624C24.0001 14.8753 23.7525 14.1082 23.2923 13.4696C22.8321 12.8311 22.1826 12.3535 21.4359 12.1046ZM10.8488 4.50053L11.5153 6.05959L9.49406 6.79553C9.32826 6.85571 9.18897 6.9724 9.10067 7.1251C9.01237 7.2778 8.98073 7.45674 9.01128 7.63046C9.04184 7.80418 9.13265 7.96157 9.26776 8.07498C9.40286 8.18838 9.57361 8.25054 9.75 8.25053C9.83735 8.25041 9.924 8.23486 10.0059 8.20459L12.1059 7.44146L12.5503 8.47928L10.9941 9.04178C10.8255 9.10004 10.6833 9.21643 10.5928 9.37009C10.5024 9.52374 10.4696 9.70459 10.5004 9.88021C10.5312 10.0558 10.6236 10.2147 10.761 10.3284C10.8983 10.4421 11.0717 10.5031 11.25 10.5005C11.3374 10.5004 11.424 10.4849 11.5059 10.4546L13.1559 9.85459C13.3452 10.203 13.5882 10.5194 13.8759 10.7921L12.4941 11.2946C12.3276 11.3543 12.1876 11.4709 12.0988 11.6239C12.01 11.7768 11.978 11.9562 12.0087 12.1304C12.0393 12.3046 12.1305 12.4623 12.2661 12.5758C12.4018 12.6893 12.5731 12.7512 12.75 12.7505C12.8373 12.7503 12.9238 12.735 13.0059 12.7055L15.6309 11.7512L20.9625 13.5277C21.3019 13.6412 21.6094 13.834 21.8593 14.0902C22.1093 14.3463 22.2945 14.6584 22.3997 15.0005H3.75V7.08146L10.8488 4.50053ZM3.75 18.0005V16.5005H22.5V18.0005H3.75Z" fill="#171211"/>
</svg>
