<svg width="52" height="52" viewBox="0 0 52 52" fill="none" xmlns="http://www.w3.org/2000/svg">
<circle cx="26" cy="26" r="25.5" fill="white" stroke="#E2521A"/>
<path d="M30.6875 17C28.7516 17 27.0566 17.8325 26 19.2397C24.9434 17.8325 23.2484 17 21.3125 17C19.7715 17.0017 18.294 17.6147 17.2044 18.7044C16.1147 19.794 15.5017 21.2715 15.5 22.8125C15.5 29.375 25.2303 34.6869 25.6447 34.9062C25.7539 34.965 25.876 34.9958 26 34.9958C26.124 34.9958 26.2461 34.965 26.3553 34.9062C26.7697 34.6869 36.5 29.375 36.5 22.8125C36.4983 21.2715 35.8853 19.794 34.7956 18.7044C33.706 17.6147 32.2285 17.0017 30.6875 17ZM26 33.3875C24.2881 32.39 17 27.8459 17 22.8125C17.0015 21.6692 17.4563 20.5732 18.2647 19.7647C19.0732 18.9563 20.1692 18.5015 21.3125 18.5C23.1359 18.5 24.6669 19.4713 25.3062 21.0312C25.3628 21.1688 25.4589 21.2865 25.5824 21.3693C25.7059 21.4521 25.8513 21.4963 26 21.4963C26.1487 21.4963 26.2941 21.4521 26.4176 21.3693C26.5411 21.2865 26.6372 21.1688 26.6937 21.0312C27.3331 19.4684 28.8641 18.5 30.6875 18.5C31.8308 18.5015 32.9268 18.9563 33.7353 19.7647C34.5437 20.5732 34.9985 21.6692 35 22.8125C35 27.8384 27.71 32.3891 26 33.3875Z" fill="#E2521A"/>
</svg>
