<svg width="24" height="24" viewBox="0 0 24 24" fill="none" xmlns="http://www.w3.org/2000/svg">
<path d="M21.7304 17.5618C22.2594 16.4866 22.523 15.3003 22.4992 14.1023C22.4754 12.9043 22.1649 11.7294 21.5937 10.676C21.0225 9.62261 20.2072 8.72145 19.2161 8.04795C18.225 7.37444 17.087 6.94822 15.8973 6.80497C15.5028 5.88521 14.9281 5.05372 14.2072 4.35949C13.4863 3.66526 12.6338 3.12233 11.6998 2.76269C10.7659 2.40305 9.76938 2.23397 8.76906 2.26542C7.76874 2.29687 6.78483 2.52821 5.8753 2.94581C4.96578 3.3634 4.14903 3.95881 3.47317 4.69695C2.79732 5.4351 2.27604 6.30104 1.94004 7.24377C1.60404 8.18649 1.46012 9.18693 1.51675 10.1861C1.57339 11.1854 1.82944 12.1631 2.26981 13.0618L1.55169 15.5762C1.4876 15.8012 1.4848 16.0391 1.54356 16.2655C1.60231 16.4919 1.7205 16.6985 1.88589 16.8639C2.05127 17.0293 2.25785 17.1475 2.48425 17.2062C2.71064 17.265 2.94862 17.2622 3.17356 17.1981L5.68794 16.48C6.44666 16.8525 7.26281 17.0943 8.102 17.1953C8.50203 18.1325 9.08884 18.9784 9.82664 19.6812C10.5644 20.3841 11.4377 20.9293 12.3932 21.2835C13.3487 21.6377 14.3663 21.7934 15.384 21.7412C16.4017 21.689 17.3981 21.43 18.3123 20.98L20.8267 21.6981C21.0516 21.7622 21.2896 21.765 21.516 21.7062C21.7424 21.6475 21.949 21.5293 22.1144 21.3639C22.2797 21.1985 22.3979 20.9919 22.4567 20.7655C22.5155 20.5391 22.5126 20.3012 22.4486 20.0762L21.7304 17.5618ZM5.76856 14.9275C5.69886 14.9275 5.62947 14.9369 5.56231 14.9556L3.08637 15.6634L3.79419 13.1875C3.84723 12.9988 3.82435 12.7969 3.73044 12.625C3.04083 11.3589 2.83053 9.88674 3.13808 8.47823C3.44564 7.06972 4.25045 5.81921 5.40503 4.95584C6.55962 4.09246 7.98665 3.67405 9.42465 3.77728C10.8626 3.8805 12.2153 4.49845 13.2347 5.51788C14.2541 6.53731 14.8721 7.88995 14.9753 9.32794C15.0785 10.7659 14.6601 12.193 13.7968 13.3476C12.9334 14.5021 11.6829 15.307 10.2744 15.6145C8.86585 15.9221 7.39369 15.7118 6.12762 15.0222C6.01786 14.9608 5.89433 14.9282 5.76856 14.9275ZM20.2061 17.6875L20.9139 20.1634L18.4379 19.4556C18.2493 19.4025 18.0474 19.4254 17.8754 19.5193C16.4929 20.2715 14.8703 20.4509 13.3569 20.0189C11.8435 19.5869 10.5601 18.578 9.78294 17.2093C10.8099 17.1024 11.8037 16.7843 12.702 16.2752C13.6003 15.766 14.3836 15.0767 15.0029 14.2504C15.6221 13.4242 16.064 12.4789 16.3007 11.4739C16.5373 10.4688 16.5638 9.42571 16.3782 8.40997C17.277 8.62177 18.1147 9.03812 18.8261 9.62662C19.5376 10.2151 20.1037 10.9599 20.4802 11.8029C20.8568 12.646 21.0337 13.5645 20.9972 14.4872C20.9607 15.4098 20.7118 16.3115 20.2698 17.1222C20.1751 17.2949 20.1522 17.498 20.2061 17.6875Z" fill="#514D4D"/>
</svg>
