<svg width="52" height="52" viewBox="0 0 52 52" fill="none" xmlns="http://www.w3.org/2000/svg">
<circle cx="26" cy="26" r="25.5" fill="white" stroke="#E2521A"/>
<path d="M30.5002 28.9991C29.9999 28.9989 29.5047 29.0992 29.0438 29.2939C28.5829 29.4885 28.1658 29.7737 27.8171 30.1325L23.4952 27.3547C23.8352 26.4829 23.8352 25.5153 23.4952 24.6435L27.8171 21.8657C28.4663 22.5306 29.3392 22.9309 30.2668 22.9888C31.1943 23.0467 32.1103 22.7582 32.8371 22.1791C33.564 21.6 34.0499 20.7717 34.2007 19.8547C34.3516 18.9377 34.1565 17.9974 33.6534 17.216C33.1503 16.4346 32.375 15.8679 31.4778 15.6257C30.5806 15.3835 29.6254 15.4831 28.7975 15.9051C27.9695 16.3271 27.3277 17.0415 26.9966 17.9099C26.6655 18.7782 26.6685 19.7385 27.0052 20.6047L22.6834 23.3825C22.1629 22.8482 21.495 22.4813 20.7649 22.3285C20.0348 22.1758 19.2758 22.2443 18.5848 22.5252C17.8938 22.8061 17.3023 23.2867 16.8859 23.9055C16.4695 24.5243 16.2471 25.2532 16.2471 25.9991C16.2471 26.745 16.4695 27.4739 16.8859 28.0927C17.3023 28.7115 17.8938 29.1921 18.5848 29.473C19.2758 29.7539 20.0348 29.8224 20.7649 29.6696C21.495 29.5169 22.1629 29.15 22.6834 28.6157L27.0052 31.3935C26.7157 32.1402 26.6729 32.96 26.883 33.7329C27.0931 34.5058 27.5451 35.191 28.1729 35.6884C28.8006 36.1858 29.5712 36.4691 30.3716 36.4968C31.172 36.5246 31.9603 36.2954 32.621 35.8427C33.2818 35.3901 33.7802 34.7378 34.0434 33.9813C34.3066 33.2249 34.3206 32.4041 34.0836 31.6391C33.8465 30.8741 33.3707 30.205 32.7259 29.73C32.0811 29.2549 31.3011 28.9988 30.5002 28.9991ZM30.5002 16.9991C30.9452 16.9991 31.3802 17.1311 31.7503 17.3783C32.1203 17.6255 32.4087 17.9769 32.579 18.3881C32.7493 18.7992 32.7938 19.2516 32.707 19.688C32.6202 20.1245 32.4059 20.5254 32.0912 20.8401C31.7765 21.1548 31.3756 21.369 30.9392 21.4559C30.5027 21.5427 30.0503 21.4981 29.6392 21.3278C29.2281 21.1575 28.8767 20.8691 28.6294 20.4991C28.3822 20.1291 28.2502 19.6941 28.2502 19.2491C28.2502 18.6524 28.4873 18.0801 28.9092 17.6581C29.3312 17.2361 29.9035 16.9991 30.5002 16.9991ZM20.0002 28.2491C19.5552 28.2491 19.1202 28.1171 18.7502 27.8699C18.3802 27.6227 18.0918 27.2713 17.9215 26.8601C17.7512 26.449 17.7066 25.9966 17.7935 25.5601C17.8803 25.1237 18.0946 24.7228 18.4092 24.4081C18.7239 24.0934 19.1248 23.8791 19.5613 23.7923C19.9977 23.7055 20.4501 23.7501 20.8613 23.9204C21.2724 24.0907 21.6238 24.3791 21.871 24.7491C22.1183 25.1191 22.2502 25.5541 22.2502 25.9991C22.2502 26.5958 22.0132 27.1681 21.5912 27.5901C21.1693 28.012 20.597 28.2491 20.0002 28.2491ZM30.5002 34.9991C30.0552 34.9991 29.6202 34.8671 29.2502 34.6199C28.8802 34.3727 28.5918 34.0213 28.4215 33.6101C28.2512 33.199 28.2066 32.7466 28.2935 32.3101C28.3803 31.8737 28.5946 31.4728 28.9092 31.1581C29.2239 30.8434 29.6248 30.6291 30.0613 30.5423C30.4977 30.4555 30.9501 30.5001 31.3613 30.6704C31.7724 30.8407 32.1238 31.1291 32.371 31.4991C32.6183 31.8691 32.7502 32.3041 32.7502 32.7491C32.7502 33.3458 32.5132 33.9181 32.0912 34.3401C31.6693 34.762 31.097 34.9991 30.5002 34.9991Z" fill="#E2521A"/>
</svg>
