<svg width="16" height="16" viewBox="0 0 16 16" fill="none" xmlns="http://www.w3.org/2000/svg">
<path d="M10.9999 10C10.6664 9.99994 10.3362 10.0668 10.0289 10.1966C9.72169 10.3263 9.44361 10.5165 9.21116 10.7557L6.32991 8.9038C6.55655 8.32261 6.55655 7.67748 6.32991 7.0963L9.21116 5.24442C9.64394 5.68775 10.2259 5.95458 10.8443 5.99319C11.4626 6.0318 12.0733 5.83943 12.5578 5.45339C13.0424 5.06735 13.3664 4.51512 13.4669 3.90379C13.5675 3.29246 13.4374 2.66557 13.102 2.14466C12.7666 1.62375 12.2498 1.24593 11.6516 1.08445C11.0535 0.922981 10.4167 0.989355 9.86474 1.27071C9.31277 1.55206 8.88492 2.02835 8.66416 2.60723C8.4434 3.18611 8.44545 3.82634 8.66991 4.4038L5.78866 6.25567C5.4417 5.89947 4.9964 5.65483 4.50968 5.55301C4.02296 5.4512 3.51694 5.49684 3.0563 5.68411C2.59565 5.87138 2.20132 6.19176 1.9237 6.6043C1.64609 7.01684 1.4978 7.5028 1.4978 8.00005C1.4978 8.4973 1.64609 8.98326 1.9237 9.3958C2.20132 9.80834 2.59565 10.1287 3.0563 10.316C3.51694 10.5033 4.02296 10.5489 4.50968 10.4471C4.9964 10.3453 5.4417 10.1006 5.78866 9.74442L8.66991 11.5963C8.47689 12.0941 8.44833 12.6407 8.5884 13.1559C8.72848 13.6712 9.02984 14.128 9.44835 14.4596C9.86686 14.7912 10.3805 14.98 10.9141 14.9985C11.4478 15.0171 11.9733 14.8642 12.4138 14.5625C12.8543 14.2607 13.1866 13.8258 13.362 13.3215C13.5375 12.8173 13.5469 12.27 13.3888 11.76C13.2308 11.25 12.9136 10.804 12.4837 10.4873C12.0538 10.1706 11.5338 9.99985 10.9999 10ZM10.9999 2.00005C11.2966 2.00005 11.5866 2.08802 11.8333 2.25284C12.0799 2.41767 12.2722 2.65193 12.3857 2.92602C12.4993 3.20011 12.529 3.50171 12.4711 3.79268C12.4132 4.08366 12.2703 4.35093 12.0606 4.56071C11.8508 4.77049 11.5835 4.91335 11.2925 4.97123C11.0016 5.0291 10.7 4.9994 10.4259 4.88587C10.1518 4.77234 9.91753 4.58008 9.7527 4.3334C9.58788 4.08673 9.49991 3.79672 9.49991 3.50005C9.49991 3.10222 9.65794 2.72069 9.93925 2.43939C10.2206 2.15808 10.6021 2.00005 10.9999 2.00005ZM3.99991 9.50005C3.70323 9.50005 3.41322 9.41207 3.16655 9.24725C2.91988 9.08243 2.72762 8.84816 2.61409 8.57407C2.50056 8.29998 2.47085 7.99838 2.52873 7.70741C2.58661 7.41644 2.72947 7.14917 2.93925 6.93939C3.14903 6.72961 3.4163 6.58675 3.70727 6.52887C3.99824 6.47099 4.29984 6.5007 4.57393 6.61423C4.84802 6.72776 5.08229 6.92002 5.24711 7.16669C5.41193 7.41337 5.49991 7.70338 5.49991 8.00005C5.49991 8.39787 5.34187 8.7794 5.06057 9.06071C4.77926 9.34201 4.39773 9.50005 3.99991 9.50005ZM10.9999 14C10.7032 14 10.4132 13.9121 10.1666 13.7473C9.91988 13.5824 9.72762 13.3482 9.61409 13.0741C9.50056 12.8 9.47085 12.4984 9.52873 12.2074C9.58661 11.9164 9.72947 11.6492 9.93925 11.4394C10.149 11.2296 10.4163 11.0867 10.7073 11.0289C10.9982 10.971 11.2998 11.0007 11.5739 11.1142C11.848 11.2278 12.0823 11.42 12.2471 11.6667C12.4119 11.9134 12.4999 12.2034 12.4999 12.5C12.4999 12.8979 12.3419 13.2794 12.0606 13.5607C11.7793 13.842 11.3977 14 10.9999 14Z" fill="#514D4D"/>
</svg>
