<svg width="22" height="19" viewBox="0 0 22 19" fill="none" xmlns="http://www.w3.org/2000/svg">
<path d="M21.2076 0.45514C21.0914 0.354798 20.95 0.288064 20.7987 0.262127C20.6474 0.236191 20.4919 0.252035 20.3489 0.307953L1.34949 7.74327C1.08023 7.84797 0.852262 8.03731 0.699919 8.28279C0.547576 8.52826 0.479099 8.81658 0.504798 9.10434C0.530496 9.3921 0.648979 9.66373 0.842409 9.87832C1.03584 10.0929 1.29375 10.2389 1.5773 10.2942L6.50011 11.2608V16.7498C6.49915 17.0488 6.588 17.3412 6.75515 17.5891C6.92231 17.837 7.16007 18.029 7.43761 18.1401C7.71473 18.2533 8.01949 18.2805 8.31225 18.2181C8.60501 18.1557 8.87224 18.0067 9.07918 17.7905L11.4529 15.3286L15.2189 18.6248C15.4906 18.8658 15.841 18.9992 16.2042 18.9998C16.3633 18.9997 16.5215 18.9747 16.6729 18.9258C16.9204 18.8472 17.1429 18.7053 17.3184 18.514C17.494 18.3227 17.6163 18.0887 17.6732 17.8355L21.4786 1.28108C21.5126 1.13178 21.5054 0.976034 21.4576 0.830534C21.4099 0.685035 21.3235 0.555267 21.2076 0.45514ZM15.4757 3.83014L7.07668 9.84514L2.42668 8.93295L15.4757 3.83014ZM8.00011 16.7498V12.2986L10.3242 14.3367L8.00011 16.7498ZM16.2061 17.4998L8.4548 10.703L19.6111 2.70702L16.2061 17.4998Z" fill="#307AC4"/>
</svg>
