<svg width="20" height="20" viewBox="0 0 20 20" fill="none" xmlns="http://www.w3.org/2000/svg">
<path d="M15.5858 11.5787L12.5858 10.0787C12.4677 10.0199 12.3362 9.99325 12.2045 10.0015C12.0728 10.0097 11.9456 10.0525 11.8358 10.1256L10.4586 11.0444C9.82641 10.6968 9.30615 10.1766 8.95861 9.54437L9.87736 8.16719C9.95045 8.05734 9.99328 7.93016 10.0015 7.79848C10.0097 7.6668 9.98308 7.53528 9.92424 7.41719L8.42424 4.41719C8.36206 4.29163 8.26596 4.186 8.14683 4.11226C8.02769 4.03853 7.89028 3.99964 7.75017 4C6.75561 4 5.80179 4.39509 5.09852 5.09835C4.39526 5.80161 4.00018 6.75544 4.00018 7.75C4.00266 9.93727 4.87265 12.0343 6.41928 13.5809C7.96592 15.1275 10.0629 15.9975 12.2502 16C12.7426 16 13.2303 15.903 13.6852 15.7145C14.1402 15.5261 14.5536 15.2499 14.9018 14.9017C15.25 14.5534 15.5263 14.14 15.7147 13.6851C15.9032 13.2301 16.0002 12.7425 16.0002 12.25C16.0003 12.1107 15.9616 11.9741 15.8884 11.8555C15.8152 11.7369 15.7104 11.6411 15.5858 11.5787ZM12.2502 14.5C10.4606 14.498 8.74484 13.7862 7.4794 12.5208C6.21396 11.2553 5.50216 9.5396 5.50017 7.75C5.50003 7.2298 5.68014 6.72562 6.00986 6.32326C6.33958 5.9209 6.79853 5.64521 7.30861 5.54313L8.38486 7.69937L7.46892 9.0625C7.40048 9.16517 7.35842 9.28314 7.34649 9.40596C7.33455 9.52877 7.3531 9.65263 7.40049 9.76656C7.9371 11.0419 8.95169 12.0565 10.227 12.5931C10.3413 12.6426 10.4661 12.6629 10.5902 12.6521C10.7143 12.6413 10.8337 12.5998 10.9377 12.5312L12.3074 11.6181L14.4636 12.6944C14.3607 13.205 14.0838 13.6642 13.6802 13.9935C13.2765 14.3228 12.7711 14.5018 12.2502 14.5ZM10.0002 0.25C8.31686 0.249633 6.66213 0.685083 5.19704 1.51396C3.73194 2.34285 2.50641 3.53692 1.63971 4.97997C0.773016 6.42301 0.294689 8.06587 0.251289 9.74862C0.207888 11.4314 0.600893 13.0967 1.39205 14.5825L0.327988 17.7747C0.239848 18.039 0.227057 18.3226 0.291048 18.5938C0.355039 18.8649 0.493283 19.1129 0.690286 19.3099C0.887288 19.5069 1.13526 19.6451 1.40642 19.7091C1.67757 19.7731 1.96119 19.7603 2.22549 19.6722L5.41768 18.6081C6.72527 19.3036 8.17413 19.6921 9.65426 19.744C11.1344 19.7959 12.6069 19.51 13.9601 18.9079C15.3132 18.3057 16.5114 17.4033 17.4636 16.269C18.4159 15.1346 19.0972 13.7983 19.4559 12.3613C19.8146 10.9244 19.8412 9.42456 19.5337 7.97578C19.2263 6.527 18.5928 5.16732 17.6813 3.99992C16.7699 2.83253 15.6045 1.88811 14.2736 1.23836C12.9427 0.588614 11.4812 0.250608 10.0002 0.25ZM10.0002 18.25C8.54984 18.251 7.12495 17.8691 5.86955 17.1428C5.77763 17.0895 5.67544 17.0563 5.56974 17.0455C5.46404 17.0347 5.35724 17.0464 5.25643 17.08L1.75018 18.25L2.91924 14.7438C2.95294 14.643 2.96485 14.5362 2.95418 14.4305C2.94351 14.3248 2.91051 14.2226 2.85736 14.1306C1.94796 12.5584 1.58284 10.7299 1.81864 8.92896C2.05444 7.12801 2.87798 5.4552 4.16151 4.17006C5.44503 2.88491 7.11679 2.05925 8.91745 1.82118C10.7181 1.5831 12.547 1.94591 14.1204 2.85333C15.6938 3.76074 16.9238 5.16204 17.6196 6.83983C18.3153 8.51762 18.4379 10.3781 17.9684 12.1327C17.4989 13.8873 16.4634 15.4379 15.0227 16.5439C13.582 17.65 11.8165 18.2497 10.0002 18.25Z" fill="#68AD2B"/>
</svg>
