<svg width="32" height="32" viewBox="0 0 32 32" fill="none" xmlns="http://www.w3.org/2000/svg">
<path d="M15.9995 3.00049C13.4284 3.00049 10.9149 3.76293 8.7771 5.19138C6.63927 6.61984 4.97302 8.65016 3.98908 11.0256C3.00514 13.401 2.7477 16.0149 3.24931 18.5367C3.75092 21.0584 4.98905 23.3748 6.80713 25.1929C8.62521 27.011 10.9416 28.2491 13.4633 28.7507C15.9851 29.2523 18.599 28.9949 20.9744 28.0109C23.3498 27.027 25.3802 25.3607 26.8086 23.2229C28.2371 21.0851 28.9995 18.5716 28.9995 16.0005C28.9959 12.5538 27.6251 9.2493 25.1879 6.81212C22.7507 4.37494 19.4462 3.00413 15.9995 3.00049ZM16.9995 26.9542V19.0005H19.9995C20.2647 19.0005 20.5191 18.8951 20.7066 18.7076C20.8942 18.5201 20.9995 18.2657 20.9995 18.0005C20.9995 17.7353 20.8942 17.4809 20.7066 17.2934C20.5191 17.1058 20.2647 17.0005 19.9995 17.0005H16.9995V14.0005C16.9995 13.4701 17.2102 12.9613 17.5853 12.5863C17.9604 12.2112 18.4691 12.0005 18.9995 12.0005H20.9995C21.2647 12.0005 21.5191 11.8951 21.7066 11.7076C21.8942 11.5201 21.9995 11.2657 21.9995 11.0005C21.9995 10.7353 21.8942 10.4809 21.7066 10.2934C21.5191 10.1058 21.2647 10.0005 20.9995 10.0005H18.9995C17.9387 10.0005 16.9212 10.4219 16.1711 11.1721C15.4209 11.9222 14.9995 12.9396 14.9995 14.0005V17.0005H11.9995C11.7343 17.0005 11.4799 17.1058 11.2924 17.2934C11.1049 17.4809 10.9995 17.7353 10.9995 18.0005C10.9995 18.2657 11.1049 18.5201 11.2924 18.7076C11.4799 18.8951 11.7343 19.0005 11.9995 19.0005H14.9995V26.9542C12.1805 26.6969 9.56922 25.3627 7.70881 23.2292C5.84841 21.0957 4.88211 18.3271 5.01091 15.4993C5.13971 12.6715 6.3537 10.0022 8.40036 8.04662C10.447 6.09106 13.1688 4.99979 15.9995 4.99979C18.8302 4.99979 21.552 6.09106 23.5987 8.04662C25.6453 10.0022 26.8593 12.6715 26.9881 15.4993C27.1169 18.3271 26.1506 21.0957 24.2902 23.2292C22.4298 25.3627 19.8185 26.6969 16.9995 26.9542Z" fill="white"/>
</svg>
