<svg width="32" height="32" viewBox="0 0 32 32" fill="none" xmlns="http://www.w3.org/2000/svg">
<path d="M15.9995 10.0005C14.8128 10.0005 13.6528 10.3524 12.6661 11.0117C11.6794 11.671 10.9104 12.608 10.4562 13.7044C10.0021 14.8007 9.88329 16.0071 10.1148 17.171C10.3463 18.3349 10.9178 19.404 11.7569 20.2431C12.596 21.0822 13.6651 21.6537 14.829 21.8852C15.9929 22.1167 17.1993 21.9979 18.2956 21.5438C19.392 21.0896 20.329 20.3206 20.9883 19.3339C21.6476 18.3472 21.9995 17.1872 21.9995 16.0005C21.9979 14.4097 21.3652 12.8845 20.2403 11.7597C19.1155 10.6348 17.5903 10.0021 15.9995 10.0005ZM15.9995 20.0005C15.2084 20.0005 14.435 19.7659 13.7772 19.3264C13.1194 18.8868 12.6067 18.2621 12.304 17.5312C12.0012 16.8003 11.922 15.9961 12.0764 15.2201C12.2307 14.4442 12.6117 13.7315 13.1711 13.1721C13.7305 12.6127 14.4432 12.2317 15.2192 12.0773C15.9951 11.923 16.7993 12.0022 17.5302 12.305C18.2611 12.6077 18.8859 13.1204 19.3254 13.7782C19.7649 14.436 19.9995 15.2094 19.9995 16.0005C19.9995 17.0614 19.5781 18.0788 18.8279 18.8289C18.0778 19.5791 17.0604 20.0005 15.9995 20.0005ZM21.9995 3.00049H9.99951C8.14361 3.00247 6.36428 3.74061 5.05196 5.05293C3.73963 6.36526 3.0015 8.14458 2.99951 10.0005V22.0005C3.0015 23.8564 3.73963 25.6357 5.05196 26.948C6.36428 28.2604 8.14361 28.9985 9.99951 29.0005H21.9995C23.8554 28.9985 25.6347 28.2604 26.9471 26.948C28.2594 25.6357 28.9975 23.8564 28.9995 22.0005V10.0005C28.9975 8.14458 28.2594 6.36526 26.9471 5.05293C25.6347 3.74061 23.8554 3.00247 21.9995 3.00049ZM26.9995 22.0005C26.9995 23.3266 26.4727 24.5983 25.535 25.536C24.5974 26.4737 23.3256 27.0005 21.9995 27.0005H9.99951C8.67343 27.0005 7.40166 26.4737 6.46398 25.536C5.5263 24.5983 4.99951 23.3266 4.99951 22.0005V10.0005C4.99951 8.67441 5.5263 7.40264 6.46398 6.46495C7.40166 5.52727 8.67343 5.00049 9.99951 5.00049H21.9995C23.3256 5.00049 24.5974 5.52727 25.535 6.46495C26.4727 7.40264 26.9995 8.67441 26.9995 10.0005V22.0005ZM23.9995 9.50049C23.9995 9.79716 23.9115 10.0872 23.7467 10.3338C23.5819 10.5805 23.3476 10.7728 23.0735 10.8863C22.7994 10.9998 22.4978 11.0295 22.2069 10.9717C21.9159 10.9138 21.6486 10.7709 21.4389 10.5611C21.2291 10.3514 21.0862 10.0841 21.0283 9.79312C20.9705 9.50215 21.0002 9.20055 21.1137 8.92646C21.2272 8.65237 21.4195 8.41811 21.6662 8.25328C21.9128 8.08846 22.2028 8.00049 22.4995 8.00049C22.8973 8.00049 23.2789 8.15852 23.5602 8.43983C23.8415 8.72113 23.9995 9.10266 23.9995 9.50049Z" fill="white"/>
</svg>
