<svg width="32" height="32" viewBox="0 0 32 32" fill="none" xmlns="http://www.w3.org/2000/svg">
<path d="M29.6093 3.27401C29.4544 3.14022 29.2659 3.05124 29.0641 3.01666C28.8624 2.98208 28.655 3.0032 28.4643 3.07776L3.13184 12.9915C2.77282 13.1311 2.46887 13.3836 2.26574 13.7109C2.06262 14.0382 1.97132 14.4226 2.00558 14.8063C2.03985 15.19 2.19782 15.5521 2.45573 15.8383C2.71364 16.1244 3.05751 16.319 3.43559 16.3928L9.99934 17.6815V25.0003C9.99805 25.3989 10.1165 25.7888 10.3394 26.1193C10.5623 26.4498 10.8793 26.7058 11.2493 26.854C11.6188 27.0049 12.0252 27.0411 12.4155 26.958C12.8059 26.8748 13.1622 26.6761 13.4381 26.3878L16.6031 23.1053L21.6243 27.5003C21.9866 27.8216 22.4538 27.9994 22.9381 28.0003C23.1503 28.0001 23.3612 27.9668 23.5631 27.9015C23.893 27.7968 24.1898 27.6075 24.4238 27.3525C24.6578 27.0974 24.8209 26.7855 24.8968 26.4478L29.9706 4.37526C30.016 4.1762 30.0063 3.96853 29.9427 3.77453C29.8791 3.58053 29.7638 3.40751 29.6093 3.27401ZM21.9668 7.77401L10.7681 15.794L4.56809 14.5778L21.9668 7.77401ZM11.9993 25.0003V19.0653L15.0981 21.7828L11.9993 25.0003ZM22.9406 26.0003L12.6056 16.9378L27.4806 6.27651L22.9406 26.0003Z" fill="white"/>
</svg>
