<svg width="32" height="32" viewBox="0 0 32 32" fill="none" xmlns="http://www.w3.org/2000/svg">
<path d="M23.4469 18.1055L19.4469 16.1055C19.2895 16.027 19.1141 15.9915 18.9385 16.0025C18.763 16.0134 18.5934 16.0705 18.4469 16.168L16.6107 17.393C15.7677 16.9296 15.0741 16.2359 14.6107 15.393L15.8357 13.5567C15.9331 13.4103 15.9902 13.2407 16.0012 13.0651C16.0122 12.8896 15.9766 12.7142 15.8982 12.5567L13.8982 8.55674C13.8153 8.38933 13.6871 8.24848 13.5283 8.15017C13.3694 8.05186 13.1862 8 12.9994 8.00049C11.6733 8.00049 10.4016 8.52727 9.46389 9.46495C8.5262 10.4026 7.99942 11.6744 7.99942 13.0005C8.00273 15.9169 9.16271 18.7128 11.2249 20.775C13.2871 22.8372 16.0831 23.9972 18.9994 24.0005C19.656 24.0005 20.3062 23.8712 20.9128 23.6199C21.5195 23.3686 22.0707 23.0003 22.535 22.536C22.9992 22.0717 23.3675 21.5205 23.6188 20.9139C23.8701 20.3073 23.9994 19.6571 23.9994 19.0005C23.9996 18.8147 23.9479 18.6326 23.8503 18.4745C23.7528 18.3164 23.6131 18.1886 23.4469 18.1055ZM18.9994 22.0005C16.6133 21.9978 14.3256 21.0488 12.6384 19.3615C10.9511 17.6743 10.0021 15.3866 9.99942 13.0005C9.99923 12.3069 10.2394 11.6346 10.679 11.0982C11.1186 10.5617 11.7306 10.1941 12.4107 10.058L13.8457 12.933L12.6244 14.7505C12.5332 14.8874 12.4771 15.0447 12.4612 15.2084C12.4453 15.3722 12.47 15.5373 12.5332 15.6892C13.2487 17.3897 14.6014 18.7425 16.3019 19.458C16.4543 19.524 16.6207 19.551 16.7861 19.5366C16.9515 19.5222 17.1108 19.4668 17.2494 19.3755L19.0757 18.158L21.9507 19.593C21.8135 20.2739 21.4443 20.8861 20.9061 21.3251C20.3679 21.7642 19.694 22.0029 18.9994 22.0005ZM15.9994 3.00049C13.755 3 11.5487 3.5806 9.59524 4.68577C7.64178 5.79095 6.00773 7.38305 4.85213 9.30711C3.69654 11.2312 3.05877 13.4216 3.0009 15.6653C2.94304 17.909 3.46704 20.1294 4.52192 22.1105L3.10317 26.3667C2.98565 26.7191 2.9686 27.0973 3.05392 27.4588C3.13924 27.8204 3.32356 28.151 3.58623 28.4137C3.8489 28.6763 4.17954 28.8607 4.54108 28.946C4.90262 29.0313 5.28078 29.0143 5.63317 28.8967L9.88942 27.478C11.6329 28.4053 13.5647 28.9232 15.5382 28.9925C17.5117 29.0617 19.4751 28.6805 21.2793 27.8777C23.0834 27.0748 24.681 25.8715 25.9507 24.3591C27.2204 22.8467 28.1288 21.0648 28.6071 19.1489C29.0853 17.233 29.1208 15.2332 28.7108 13.3015C28.3009 11.3698 27.4562 9.55691 26.241 8.00038C25.0257 6.44386 23.4719 5.18464 21.6973 4.31831C19.9227 3.45197 17.9742 3.0013 15.9994 3.00049ZM15.9994 27.0005C14.0656 27.0018 12.1658 26.4926 10.4919 25.5242C10.3694 25.4532 10.2331 25.4089 10.0922 25.3945C9.95124 25.3801 9.80884 25.3957 9.67442 25.4405L4.99942 27.0005L6.55817 22.3255C6.6031 22.1912 6.61898 22.0488 6.60476 21.9079C6.59054 21.7669 6.54654 21.6306 6.47567 21.508C5.26313 19.4116 4.77631 16.9737 5.09071 14.5724C5.40511 12.1712 6.50316 9.94076 8.21453 8.22723C9.9259 6.5137 12.1549 5.41283 14.5558 5.09539C16.9567 4.77796 19.3952 5.26171 21.4931 6.47159C23.591 7.68148 25.231 9.54987 26.1586 11.7869C27.0863 14.024 27.2498 16.5046 26.6237 18.8441C25.9977 21.1835 24.6171 23.251 22.6961 24.7258C20.7751 26.2005 18.4212 27.0001 15.9994 27.0005Z" fill="white"/>
</svg>
